# xmcd
#
# Track frame offsets: 
#        150
#        14204
#        32404
#        44932
#        58547
#        73700
#        84318
#        109320
#        124358
#        135244
#        153866
#        168284
#        188242
#        204532
#        217693
#        232650
#
# Disc length: 3221 seconds
#
# Revision: 0
# Processed by: cddbd v1.5.2PL0 Copyright (c) Steve Scherf et al.
# Submitted via: ExactAudioCopy v0.95b3
#
DISCID=d70c9310
DTITLE=Spirit  - Clear (1969)(2006 SPV Rem.)  FLAC
DYEAR=1900
DGENRE=
TTITLE0=Dark Eyed Woman
TTITLE1=Apple Orchard
TTITLE2=So Little Time to Fly
TTITLE3=Ground Hog
TTITLE4=Cold Wind
TTITLE5=Policeman's Ball
TTITLE6=Ice
TTITLE7=Give a Life, Take a Life
TTITLE8=I'm Truckin'
TTITLE9=Clear
TTITLE10=Caught
TTITLE11=New Dope in Town
TTITLE12=1984
TTITLE13=Sweet Stella Baby
TTITLE14=Fuller Brush Man
TTITLE15=Coral
EXTD=
EXTT0=
EXTT1=
EXTT2=
EXTT3=
EXTT4=
EXTT5=
EXTT6=
EXTT7=
EXTT8=
EXTT9=
EXTT10=
EXTT11=
EXTT12=
EXTT13=
EXTT14=
EXTT15=
PLAYORDER=
